# Blender v2.81 (sub 16) OBJ File: 'Scene.blend'
# www.blender.org
mtllib skybox.mtl
o Cube_Cube.007
v 252.195602 243.718124 -251.561478
v 252.195602 -260.673096 -251.561478
v 252.195602 243.718124 252.829727
v 252.195602 -260.673096 252.829727
v -252.195602 243.718124 -251.561478
v -252.195602 -260.673096 -251.561478
v -252.195602 243.718124 252.829727
v -252.195602 -260.673096 252.829727
vt 0.746695 0.666667
vt 0.995342 0.666667
vt 0.995342 0.333333
vt 0.498047 0.666667
vt 0.746695 0.333333
vt 0.249400 0.666667
vt 0.498047 0.333333
vt 0.000752 0.666667
vt 0.249400 0.333333
vt 0.249400 1.000000
vt 0.498047 1.000000
vt 0.498047 0.000000
vt 0.000752 0.333333
vt 0.249400 0.000000
vn -1.0000 0.0000 0.0000
vn 0.0000 0.0000 -1.0000
vn 1.0000 0.0000 0.0000
vn 0.0000 0.0000 1.0000
vn 0.0000 -1.0000 0.0000
vn 0.0000 1.0000 0.0000
usemtl sky
s off
f 3/1/1 1/2/1 2/3/1
f 7/4/2 3/1/2 4/5/2
f 5/6/3 7/4/3 8/7/3
f 1/8/4 5/6/4 6/9/4
f 1/10/5 3/11/5 7/4/5
f 6/9/6 8/7/6 4/12/6
f 3/1/1 2/3/1 4/5/1
f 7/4/2 4/5/2 8/7/2
f 5/6/3 8/7/3 6/9/3
f 1/8/4 6/9/4 2/13/4
f 1/10/5 7/4/5 5/6/5
f 6/9/6 4/12/6 2/14/6
